<svg width="61" height="82" viewBox="0 0 61 82" fill="none" xmlns="http://www.w3.org/2000/svg">
<g filter="url(#filter0_d_1352_28242)">
<path d="M49.2383 7.57309C38.8902 -2.52436 22.1113 -2.52436 11.7617 7.57309C2.43701 16.6719 1.38733 33.804 9.30077 44.0992L30.5 73.9733L51.6992 44.0992C59.6127 33.804 58.563 16.6719 49.2383 7.57309ZM30.758 34.1412C25.9266 34.1412 22.0107 30.3201 22.0107 25.6057C22.0107 20.8913 25.9266 17.0702 30.758 17.0702C35.5895 17.0702 39.5054 20.8913 39.5054 25.6057C39.5054 30.3201 35.5895 34.1412 30.758 34.1412Z" fill="#F1846B"/>
<ellipse cx="30.5" cy="26.2812" rx="22.5" ry="22.3867" fill="white"/>
<path d="M15.96 20.0389H25.07V21.2189H15.96V20.0389ZM19.82 17.7989H21.11V25.5189H19.82V17.7989ZM23.23 16.2089L24.14 17.2189C23.6267 17.3656 23.0733 17.4989 22.48 17.6189C21.8867 17.7322 21.27 17.8356 20.63 17.9289C19.9967 18.0156 19.3567 18.0922 18.71 18.1589C18.07 18.2256 17.4433 18.2822 16.83 18.3289C16.8167 18.2222 16.79 18.1056 16.75 17.9789C16.7167 17.8456 16.6767 17.7156 16.63 17.5889C16.59 17.4622 16.5467 17.3556 16.5 17.2689C17.1067 17.2222 17.7167 17.1622 18.33 17.0889C18.95 17.0156 19.5567 16.9356 20.15 16.8489C20.75 16.7622 21.31 16.6656 21.83 16.5589C22.3567 16.4522 22.8233 16.3356 23.23 16.2089ZM26.01 16.6989H35.01V17.6089H26.01V16.6989ZM26.02 18.6889H34.99V19.6089H26.02V18.6889ZM28.18 16.1289H29.37V18.2289H28.18V16.1289ZM31.62 16.1289H32.82V18.2689H31.62V16.1289ZM25.96 22.5489H35.07V23.4589H25.96V22.5489ZM29.89 21.8689H31.07V25.5289H29.89V21.8689ZM29.61 23.0789L30.5 23.5089C30.26 23.7289 29.9833 23.9389 29.67 24.1389C29.3567 24.3322 29.02 24.5122 28.66 24.6789C28.3067 24.8456 27.9433 24.9956 27.57 25.1289C27.1967 25.2622 26.8267 25.3722 26.46 25.4589C26.4067 25.3589 26.3367 25.2489 26.25 25.1289C26.1633 25.0089 26.0733 24.8922 25.98 24.7789C25.8867 24.6656 25.7967 24.5689 25.71 24.4889C26.07 24.4289 26.4367 24.3522 26.81 24.2589C27.1833 24.1656 27.5433 24.0589 27.89 23.9389C28.2433 23.8122 28.5667 23.6789 28.86 23.5389C29.1533 23.3922 29.4033 23.2389 29.61 23.0789ZM31.37 22.9789C31.6367 23.2189 31.9767 23.4356 32.39 23.6289C32.8033 23.8222 33.2567 23.9889 33.75 24.1289C34.25 24.2689 34.76 24.3756 35.28 24.4489C35.1933 24.5289 35.1 24.6289 35 24.7489C34.9067 24.8756 34.8133 25.0022 34.72 25.1289C34.6333 25.2622 34.5633 25.3822 34.51 25.4889C34.1167 25.4022 33.7267 25.2889 33.34 25.1489C32.96 25.0156 32.5933 24.8556 32.24 24.6689C31.8867 24.4889 31.56 24.2856 31.26 24.0589C30.96 23.8322 30.6933 23.5889 30.46 23.3289L31.37 22.9789ZM27.19 18.0889H28.38V21.1389H34.7V22.0489H27.19V18.0889ZM29.72 18.0289H30.85V20.0689H32.38V18.0989H33.57V20.7589H29.72V18.0289ZM39.47 18.5689V19.0889H42.78V18.5689H39.47ZM39.47 19.8489V20.3589H42.78V19.8489H39.47ZM39.47 17.2989V17.8089H42.78V17.2989H39.47ZM38.34 16.4889H43.95V21.1789H38.34V16.4889ZM41.77 23.5989L42.8 22.9489C43.0533 23.1156 43.3267 23.3056 43.62 23.5189C43.9133 23.7256 44.1967 23.9356 44.47 24.1489C44.75 24.3622 44.9767 24.5522 45.15 24.7189L44.04 25.4689C43.88 25.2956 43.67 25.0989 43.41 24.8789C43.1567 24.6656 42.8833 24.4456 42.59 24.2189C42.2967 23.9922 42.0233 23.7856 41.77 23.5989ZM39.88 22.1489H41.15V25.5289H39.88V22.1489ZM37.13 21.6889H45.03V22.7489H37.13V21.6889ZM36.44 17.0789H37.64V22.9589H36.44V17.0789ZM38.01 23.0289L39.27 23.4989C39.0567 23.7456 38.8133 23.9889 38.54 24.2289C38.2667 24.4689 37.9833 24.6956 37.69 24.9089C37.4033 25.1222 37.1233 25.3056 36.85 25.4589C36.77 25.3722 36.67 25.2789 36.55 25.1789C36.43 25.0789 36.31 24.9789 36.19 24.8789C36.07 24.7856 35.9633 24.7089 35.87 24.6489C36.1433 24.5156 36.4133 24.3589 36.68 24.1789C36.9533 23.9989 37.2067 23.8089 37.44 23.6089C37.6733 23.4089 37.8633 23.2156 38.01 23.0289Z" fill="black"/>
<path d="M18.559 38.3086V37.2036C19.4343 36.4236 20.1797 35.6999 20.795 35.0326C21.419 34.3653 21.8957 33.7456 22.225 33.1736C22.5543 32.5929 22.719 32.0556 22.719 31.5616C22.719 31.2496 22.6627 30.9766 22.55 30.7426C22.4373 30.5086 22.2727 30.3309 22.056 30.2096C21.848 30.0796 21.588 30.0146 21.276 30.0146C20.9293 30.0146 20.6087 30.1143 20.314 30.3136C20.028 30.5043 19.7637 30.7339 19.521 31.0026L18.455 29.9756C18.9057 29.4903 19.365 29.1263 19.833 28.8836C20.3097 28.6323 20.873 28.5066 21.523 28.5066C22.1297 28.5066 22.6583 28.6323 23.109 28.8836C23.5683 29.1263 23.9237 29.4686 24.175 29.9106C24.4263 30.3526 24.552 30.8726 24.552 31.4706C24.552 32.0513 24.4047 32.6449 24.11 33.2516C23.824 33.8496 23.4383 34.4476 22.953 35.0456C22.4677 35.6436 21.9303 36.2329 21.341 36.8136C21.5923 36.7789 21.861 36.7529 22.147 36.7356C22.4417 36.7096 22.7017 36.6966 22.927 36.6966H25.007V38.3086H18.559ZM26.734 38.3086V36.7486H28.814V30.6776H27.059V29.4816C27.5443 29.3949 27.9603 29.2909 28.307 29.1696C28.6623 29.0396 28.9916 28.8749 29.295 28.6756H30.712V36.7486H32.519V38.3086H26.734ZM38.6189 30.7756H39.7169V39.1096H38.6189V30.7756ZM37.0889 31.1626L38.1329 31.3696C38.0489 31.7776 37.9469 32.1826 37.8269 32.5846C37.7069 32.9866 37.5719 33.3646 37.4219 33.7186C37.2779 34.0666 37.1249 34.3726 36.9629 34.6366C36.8969 34.5826 36.8039 34.5226 36.6839 34.4566C36.5699 34.3906 36.4529 34.3276 36.3329 34.2676C36.2189 34.2016 36.1169 34.1536 36.0269 34.1236C36.1889 33.8836 36.3389 33.6046 36.4769 33.2866C36.6149 32.9626 36.7349 32.6206 36.8369 32.2606C36.9389 31.8946 37.0229 31.5286 37.0889 31.1626ZM37.4399 32.4046H41.6069V33.4666H37.1699L37.4399 32.4046ZM36.1799 35.0236H42.0299V36.0766H36.1799V35.0236ZM35.5139 30.6946L36.5399 31.0186C36.3479 31.5226 36.1229 32.0326 35.8649 32.5486C35.6069 33.0586 35.3249 33.5416 35.0189 33.9976C34.7189 34.4536 34.4069 34.8556 34.0829 35.2036C34.0469 35.1136 33.9959 34.9996 33.9299 34.8616C33.8639 34.7176 33.7919 34.5736 33.7139 34.4296C33.6359 34.2856 33.5639 34.1686 33.4979 34.0786C33.7679 33.8026 34.0259 33.4846 34.2719 33.1246C34.5239 32.7646 34.7549 32.3776 34.9649 31.9636C35.1809 31.5496 35.3639 31.1266 35.5139 30.6946ZM34.6229 33.1876L35.6489 32.1616V32.1706V39.1006H34.6229V33.1876Z" fill="black"/>
</g>
<defs>
<filter id="filter0_d_1352_28242" x="0" y="0" width="61" height="81.9727" filterUnits="userSpaceOnUse" color-interpolation-filters="sRGB">
<feFlood flood-opacity="0" result="BackgroundImageFix"/>
<feColorMatrix in="SourceAlpha" type="matrix" values="0 0 0 0 0 0 0 0 0 0 0 0 0 0 0 0 0 0 127 0" result="hardAlpha"/>
<feOffset dy="4"/>
<feGaussianBlur stdDeviation="2"/>
<feComposite in2="hardAlpha" operator="out"/>
<feColorMatrix type="matrix" values="0 0 0 0 0 0 0 0 0 0 0 0 0 0 0 0 0 0 0.15 0"/>
<feBlend mode="normal" in2="BackgroundImageFix" result="effect1_dropShadow_1352_28242"/>
<feBlend mode="normal" in="SourceGraphic" in2="effect1_dropShadow_1352_28242" result="shape"/>
</filter>
</defs>
</svg>
