<svg width="37" height="50" viewBox="0 0 37 50" fill="none" xmlns="http://www.w3.org/2000/svg">
<path d="M15.3614 23.7257C15.0876 23.7257 14.8137 23.6212 14.6048 23.4123L10.8407 19.6483C10.4229 19.2304 10.4229 18.5528 10.8407 18.1349C11.2586 17.7171 11.9361 17.717 12.354 18.1349L15.3615 21.1424L22.8857 13.6181C23.3036 13.2002 23.9812 13.2002 24.3991 13.6181C24.8169 14.036 24.8169 14.7135 24.3991 15.1314L16.1181 23.4124C15.9092 23.6212 15.6352 23.7257 15.3614 23.7257Z" fill="#41BBA2"/>
<path d="M18.0643 31.4412C10.7422 31.4412 4.78516 25.4842 4.78516 18.162C4.78516 10.8398 10.7422 4.88281 18.0643 4.88281C25.3865 4.88281 31.3435 10.8398 31.3435 18.162C31.3435 25.4841 25.3865 31.4412 18.0643 31.4412ZM18.0643 7.02279C11.9222 7.02279 6.92524 12.0198 6.92524 18.1619C6.92524 24.304 11.9222 29.301 18.0643 29.301C24.2065 29.301 29.2034 24.304 29.2034 18.1619C29.2034 12.0198 24.2065 7.02279 18.0643 7.02279Z" fill="#41BBA2"/>
<path d="M18.0647 50.0019C14.1773 50.0019 10.5081 49.5276 7.7331 48.6664C3.68232 47.4092 2.83203 45.7267 2.83203 44.5366C2.83203 43.4391 3.56199 41.8716 7.03952 40.637C9.36939 39.81 12.5489 39.2703 15.9924 39.1174L16.0873 41.2554C12.8498 41.3992 9.89079 41.8958 7.75547 42.6539C5.55382 43.4355 4.97201 44.2272 4.97201 44.5367C4.97201 44.9516 5.8762 45.8495 8.36734 46.6226C10.9426 47.4217 14.3865 47.8618 18.0647 47.8618C21.7429 47.8618 25.1868 47.4217 27.762 46.6224C30.253 45.8493 31.1573 44.9514 31.1573 44.5365C31.1573 44.227 30.5756 43.4353 28.3739 42.6537C26.2385 41.8956 23.2795 41.399 20.0421 41.2552L20.1369 39.1172C23.5805 39.2701 26.76 39.8098 29.0898 40.6368C32.5673 41.8714 33.2973 43.4389 33.2973 44.5364C33.2973 45.7265 32.447 47.409 28.3962 48.6662C25.6213 49.5276 21.9522 50.0019 18.0647 50.0019Z" fill="#41BBA2"/>
<path d="M18.0652 44.6279C17.6893 44.6279 17.3411 44.4307 17.1476 44.1085L11.6567 34.9569C4.66809 32.3052 0 25.5664 0 18.0652C0 8.10399 8.10399 0 18.0652 0C28.0264 0 36.1303 8.10399 36.1303 18.0652C36.1303 25.5664 31.4623 32.3052 24.4736 34.9569L18.9828 44.1085C18.7893 44.4307 18.441 44.6279 18.0652 44.6279ZM18.0652 2.14008C9.28405 2.14008 2.14008 9.28405 2.14008 18.0652C2.14008 24.7925 6.39903 30.8242 12.7379 33.0742C12.972 33.1573 13.1697 33.3192 13.2976 33.5321L18.0652 41.4781L22.8328 33.5321C22.9605 33.3193 23.1584 33.1573 23.3924 33.0742C29.7313 30.8241 33.9903 24.7924 33.9903 18.0652C33.9903 9.28405 26.8463 2.14008 18.0652 2.14008Z" fill="#41BBA2"/>
</svg>
