<svg width="38" height="50" viewBox="0 0 38 50" fill="none" xmlns="http://www.w3.org/2000/svg">
<g clip-path="url(#clip0_1401_119293)">
<path d="M1.08789 20.0647V12.2794V11.8489V1.08594H36.9257V11.8489V12.2794V20.0288V48.9214H36.1014H24.1316H13.8939H1.08789V48.8735V20.0647Z" stroke="#41BBA2" stroke-width="1.81" stroke-linecap="round" stroke-linejoin="round"/>
<path d="M11.5518 6.57812H6.57031V11.565H11.5518V6.57812Z" stroke="#41BBA2" stroke-width="1.5" stroke-linecap="round" stroke-linejoin="round"/>
<path d="M31.4658 6.57812H26.4844V11.565H31.4658V6.57812Z" stroke="#41BBA2" stroke-width="1.5" stroke-linecap="round" stroke-linejoin="round"/>
<path d="M21.5029 6.57812H16.5215V11.565H21.5029V6.57812Z" stroke="#41BBA2" stroke-width="1.5" stroke-linecap="round" stroke-linejoin="round"/>
<path d="M11.5518 17.7969H6.57031V22.7837H11.5518V17.7969Z" stroke="#41BBA2" stroke-width="1.5" stroke-linecap="round" stroke-linejoin="round"/>
<path d="M31.4658 17.7969H26.4844V22.7837H31.4658V17.7969Z" stroke="#41BBA2" stroke-width="1.5" stroke-linecap="round" stroke-linejoin="round"/>
<path d="M21.5029 17.7969H16.5215V22.7837H21.5029V17.7969Z" stroke="#41BBA2" stroke-width="1.5" stroke-linecap="round" stroke-linejoin="round"/>
<path d="M11.5518 28.9844H6.57031V33.9712H11.5518V28.9844Z" stroke="#41BBA2" stroke-width="1.5" stroke-linecap="round" stroke-linejoin="round"/>
<path d="M31.4658 28.9844H26.4844V33.9712H31.4658V28.9844Z" stroke="#41BBA2" stroke-width="1.5" stroke-linecap="round" stroke-linejoin="round"/>
<path d="M21.5029 28.9844H16.5215V33.9712H21.5029V28.9844Z" stroke="#41BBA2" stroke-width="1.5" stroke-linecap="round" stroke-linejoin="round"/>
<path d="M14.0371 48.9268V38.9531H23.9881V48.9268" stroke="#41BBA2" stroke-width="1.5" stroke-linecap="round" stroke-linejoin="round"/>
</g>
<defs>
<clipPath id="clip0_1401_119293">
<rect width="38" height="50" fill="white"/>
</clipPath>
</defs>
</svg>
