<svg width="50" height="50" viewBox="0 0 50 50" fill="none" xmlns="http://www.w3.org/2000/svg">
<g clip-path="url(#clip0_1401_119344)">
<path d="M43.8548 45.6056H44.5313C45.1246 45.6056 45.6055 45.1247 45.6055 44.5314C45.6055 43.9381 45.1246 43.4572 44.5313 43.4572H42.6143L40.5902 39.9513C40.2935 39.4375 39.6365 39.2616 39.1228 39.5582C38.6091 39.8548 38.433 40.5118 38.7297 41.0255L42.6708 47.8517H40.0772L35.5159 39.9513C35.2192 39.4375 34.5622 39.2616 34.0485 39.5582C33.5347 39.8548 33.3587 40.5118 33.6553 41.0255L35.0593 43.4572H14.941L16.311 41.0843C16.6077 40.5706 16.4316 39.9135 15.9178 39.6169C15.4041 39.3204 14.7471 39.4964 14.4505 40.0101L9.92292 47.8517H7.32947L11.2367 41.0843C11.5334 40.5706 11.3573 39.9135 10.8435 39.6169C10.3298 39.3204 9.67283 39.4964 9.37615 40.0101L7.38581 43.4572H5.46882C4.87556 43.4572 4.3946 43.9381 4.3946 44.5314C4.3946 45.1247 4.87556 45.6056 5.46882 45.6056H6.14539L4.53845 48.3888C4.34656 48.7211 4.34656 49.1307 4.53845 49.463C4.73035 49.7954 5.08503 50.0002 5.46882 50.0002H10.5431C10.9269 50.0002 11.2816 49.7954 11.4734 49.463L13.7005 45.6056H36.2995L38.5265 49.463C38.7184 49.7954 39.0731 50.0002 39.4568 50.0002H44.5313C44.9151 50.0002 45.2698 49.7954 45.4616 49.463C45.6534 49.1307 45.6535 48.7211 45.4616 48.3888L43.8548 45.6056Z" fill="#41BBA2"/>
<path d="M35.7422 0H14.2578C9.35762 0 5.37109 3.98652 5.37109 8.88672V36.2305C5.37109 38.9768 7.60527 41.2109 10.3516 41.2109H39.6484C42.3947 41.2109 44.6289 38.9768 44.6289 36.2305V8.88672C44.6289 3.98652 40.6424 0 35.7422 0ZM39.6484 39.0625H10.3516C8.78994 39.0625 7.51953 37.7921 7.51953 36.2305V23.3887H10.8398C11.4331 23.3887 11.9141 22.9077 11.9141 22.3145C11.9141 21.7212 11.4331 21.2402 10.8398 21.2402H7.51953V8.88672C7.51953 5.17119 10.5423 2.14844 14.2578 2.14844H35.7422C39.4577 2.14844 42.4805 5.17119 42.4805 8.88672V21.2402H39.1602C38.5669 21.2402 38.0859 21.7212 38.0859 22.3145C38.0859 22.9077 38.5669 23.3887 39.1602 23.3887H42.4805V36.2305C42.4805 37.7921 41.2101 39.0625 39.6484 39.0625Z" fill="#41BBA2"/>
<path d="M29.3945 4.88281H20.6055C20.0122 4.88281 19.5312 5.36377 19.5312 5.95703C19.5312 6.55029 20.0122 7.03125 20.6055 7.03125H29.3945C29.9878 7.03125 30.4688 6.55029 30.4688 5.95703C30.4688 5.36377 29.9878 4.88281 29.3945 4.88281Z" fill="#41BBA2"/>
<path d="M20.6055 30.2266C20.0122 30.2266 19.5312 30.7075 19.5312 31.3008V33.8395C19.5312 34.4327 20.0122 34.9137 20.6055 34.9137C21.1987 34.9137 21.6797 34.4327 21.6797 33.8395V31.3008C21.6797 30.7075 21.1988 30.2266 20.6055 30.2266Z" fill="#41BBA2"/>
<path d="M25 30.2266C24.4067 30.2266 23.9258 30.7075 23.9258 31.3008V33.8395C23.9258 34.4327 24.4067 34.9137 25 34.9137C25.5933 34.9137 26.0742 34.4327 26.0742 33.8395V31.3008C26.0742 30.7075 25.5933 30.2266 25 30.2266Z" fill="#41BBA2"/>
<path d="M29.3945 30.2266C28.8013 30.2266 28.3203 30.7075 28.3203 31.3008V33.8395C28.3203 34.4327 28.8013 34.9137 29.3945 34.9137C29.9878 34.9137 30.4688 34.4327 30.4688 33.8395V31.3008C30.4688 30.7075 29.9878 30.2266 29.3945 30.2266Z" fill="#41BBA2"/>
<path d="M36.4746 28.8125C34.4015 28.8125 32.7148 30.4991 32.7148 32.5723C32.7148 34.6454 34.4015 36.332 36.4746 36.332C38.5478 36.332 40.2344 34.6454 40.2344 32.5723C40.2344 30.4991 38.5478 28.8125 36.4746 28.8125ZM36.4746 34.1836C35.5861 34.1836 34.8633 33.4607 34.8633 32.5723C34.8633 31.6837 35.5861 30.9609 36.4746 30.9609C37.3631 30.9609 38.0859 31.6838 38.0859 32.5723C38.0859 33.4608 37.3631 34.1836 36.4746 34.1836Z" fill="#41BBA2"/>
<path d="M13.5254 28.8125C11.4522 28.8125 9.76562 30.4991 9.76562 32.5723C9.76562 34.6454 11.4522 36.332 13.5254 36.332C15.5985 36.332 17.2852 34.6454 17.2852 32.5723C17.2852 30.4991 15.5985 28.8125 13.5254 28.8125ZM13.5254 34.1836C12.6369 34.1836 11.9141 33.4607 11.9141 32.5723C11.9141 31.6837 12.6369 30.9609 13.5254 30.9609C14.4139 30.9609 15.1367 31.6838 15.1367 32.5723C15.1367 33.4608 14.4139 34.1836 13.5254 34.1836Z" fill="#41BBA2"/>
<path d="M36.7188 10.5H13.2812C11.612 10.5 10.2539 11.8581 10.2539 13.5273V22.3164C10.2539 23.9856 11.612 25.3438 13.2812 25.3438H36.7188C38.388 25.3438 39.7461 23.9856 39.7461 22.3164V13.5273C39.7461 11.8581 38.388 10.5 36.7188 10.5ZM37.5977 22.3164C37.5977 22.801 37.2033 23.1953 36.7188 23.1953H23.6848L24.4425 21.8829C24.7392 21.3691 24.5631 20.7121 24.0493 20.4155C23.5355 20.119 22.8786 20.295 22.5819 20.8087L21.204 23.1953H18.6556L20.9038 19.3013C21.2005 18.7875 21.0244 18.1305 20.5106 17.8339C19.9969 17.5374 19.3399 17.7133 19.0433 18.2271L16.1747 23.1953H13.2812C12.7967 23.1953 12.4023 22.801 12.4023 22.3164V13.5273C12.4023 13.0428 12.7967 12.6484 13.2812 12.6484H32.077L29.8292 16.5419C29.5325 17.0557 29.7086 17.7127 30.2224 18.0093C30.3915 18.1069 30.5763 18.1534 30.7585 18.1534C31.1297 18.1534 31.4908 17.9607 31.6898 17.6161L34.5579 12.6484H36.7188C37.2033 12.6484 37.5977 13.0428 37.5977 13.5273V22.3164Z" fill="#41BBA2"/>
</g>
<defs>
<clipPath id="clip0_1401_119344">
<rect width="50" height="50" fill="white"/>
</clipPath>
</defs>
</svg>
